<svg width="40" height="40" viewBox="0 0 40 40" fill="none" xmlns="http://www.w3.org/2000/svg">
<path d="M24.9998 6.66666C28.5361 6.66666 31.9274 8.07141 34.4279 10.5719C36.9284 13.0724 38.3332 16.4638 38.3332 20C38.3332 23.5362 36.9284 26.9276 34.4279 29.4281C31.9274 31.9286 28.5361 33.3333 24.9998 33.3333C21.4636 33.3333 18.0722 31.9286 15.5717 29.4281C13.0713 26.9276 11.6665 23.5362 11.6665 20C11.6665 16.4638 13.0713 13.0724 15.5717 10.5719C18.0722 8.07141 21.4636 6.66666 24.9998 6.66666ZM24.9998 9.99999C22.3477 9.99999 19.8041 11.0536 17.9288 12.9289C16.0534 14.8043 14.9998 17.3478 14.9998 20C14.9998 22.6522 16.0534 25.1957 17.9288 27.0711C19.8041 28.9464 22.3477 30 24.9998 30C27.652 30 30.1955 28.9464 32.0709 27.0711C33.9463 25.1957 34.9998 22.6522 34.9998 20C34.9998 17.3478 33.9463 14.8043 32.0709 12.9289C30.1955 11.0536 27.652 9.99999 24.9998 9.99999ZM23.3332 13.3333H25.8332V19.6333L29.7165 23.5167L27.9498 25.2833L23.3332 20.6667V13.3333ZM3.33317 30C2.89114 30 2.46722 29.8244 2.15466 29.5118C1.8421 29.1993 1.6665 28.7753 1.6665 28.3333C1.6665 27.8913 1.8421 27.4674 2.15466 27.1548C2.46722 26.8422 2.89114 26.6667 3.33317 26.6667H9.7165C10.2332 27.85 10.8998 28.9667 11.6665 30H3.33317ZM4.99984 21.6667C4.55781 21.6667 4.13389 21.4911 3.82133 21.1785C3.50877 20.8659 3.33317 20.442 3.33317 20C3.33317 19.558 3.50877 19.134 3.82133 18.8215C4.13389 18.5089 4.55781 18.3333 4.99984 18.3333H8.4165L8.33317 20L8.4165 21.6667H4.99984ZM6.6665 13.3333C6.22448 13.3333 5.80055 13.1577 5.48799 12.8452C5.17543 12.5326 4.99984 12.1087 4.99984 11.6667C4.99984 11.2246 5.17543 10.8007 5.48799 10.4881C5.80055 10.1756 6.22448 9.99999 6.6665 9.99999H11.6665C10.8998 11.0333 10.2332 12.15 9.7165 13.3333H6.6665Z" fill="url(#paint0_linear_589_10)"/>
<defs>
<linearGradient id="paint0_linear_589_10" x1="1.6665" y1="6.66666" x2="38.3332" y2="33.3333" gradientUnits="userSpaceOnUse">
<stop stop-color="#CA7DCC"/>
<stop offset="0.401042" stop-color="#FA00FF"/>
<stop offset="0.953125" stop-color="#FF5C00"/>
</linearGradient>
</defs>
</svg>
