<svg width="209" height="53" viewBox="0 0 209 53" fill="none" xmlns="http://www.w3.org/2000/svg">
<path d="M194 11.6667C197.536 11.6667 200.927 13.0714 203.428 15.5719C205.928 18.0724 207.333 21.4638 207.333 25C207.333 28.5362 205.928 31.9276 203.428 34.4281C200.927 36.9286 197.536 38.3333 194 38.3333C190.464 38.3333 187.072 36.9286 184.572 34.4281C182.071 31.9276 180.667 28.5362 180.667 25C180.667 21.4638 182.071 18.0724 184.572 15.5719C187.072 13.0714 190.464 11.6667 194 11.6667ZM194 15C191.348 15 188.804 16.0536 186.929 17.929C185.053 19.8043 184 22.3479 184 25C184 27.6522 185.053 30.1957 186.929 32.0711C188.804 33.9464 191.348 35 194 35C196.652 35 199.196 33.9464 201.071 32.0711C202.946 30.1957 204 27.6522 204 25C204 22.3479 202.946 19.8043 201.071 17.929C199.196 16.0536 196.652 15 194 15ZM192.333 18.3334H194.833V24.6334L198.717 28.5167L196.95 30.2833L192.333 25.6667V18.3334ZM172.333 35C171.891 35 171.467 34.8244 171.155 34.5119C170.842 34.1993 170.667 33.7754 170.667 33.3333C170.667 32.8913 170.842 32.4674 171.155 32.1548C171.467 31.8423 171.891 31.6667 172.333 31.6667H178.717C179.233 32.85 179.9 33.9667 180.667 35H172.333ZM174 26.6667C173.558 26.6667 173.134 26.4911 172.821 26.1785C172.509 25.866 172.333 25.442 172.333 25C172.333 24.558 172.509 24.1341 172.821 23.8215C173.134 23.5089 173.558 23.3334 174 23.3334H177.417L177.333 25L177.417 26.6667H174ZM175.667 18.3334C175.224 18.3334 174.801 18.1578 174.488 17.8452C174.175 17.5326 174 17.1087 174 16.6667C174 16.2247 174.175 15.8007 174.488 15.4882C174.801 15.1756 175.224 15 175.667 15H180.667C179.9 16.0334 179.233 17.15 178.717 18.3334H175.667Z" fill="url(#paint0_linear_140_969)"/>
<path d="M9.01562 12.6875H3.04688V10.2188H17.75V12.6875H11.7812V33.0938H9.01562V12.6875ZM23.9375 13.9375C23.5833 14.3958 23.1042 14.625 22.5 14.625C21.8958 14.625 21.4115 14.3958 21.0469 13.9375C20.6927 13.4792 20.5156 12.9271 20.5156 12.2812C20.5156 11.8125 20.625 11.3906 20.8438 11.0156C21.0625 10.6302 21.3438 10.3438 21.6875 10.1562C21.9271 10.0104 22.1979 9.9375 22.5 9.9375C23.1042 9.9375 23.5833 10.1667 23.9375 10.625C24.3021 11.0833 24.4844 11.6354 24.4844 12.2812C24.4844 12.9271 24.3021 13.4792 23.9375 13.9375ZM23.875 33.0156H21.1719V16.5H23.875V33.0156ZM30.1094 17.9531C30.3906 17.5885 30.7031 17.2708 31.0469 17C31.3906 16.7292 31.8021 16.5 32.2812 16.3125C32.7708 16.125 33.2812 16.0312 33.8125 16.0312C34.8438 16.0312 35.7448 16.276 36.5156 16.7656C37.2969 17.2552 37.9271 17.901 38.4062 18.7031C38.8958 17.8906 39.5312 17.2448 40.3125 16.7656C41.1042 16.276 42.0208 16.0312 43.0625 16.0312C43.7396 16.0312 44.3646 16.1354 44.9375 16.3438C45.5104 16.5521 46.0104 16.8438 46.4375 17.2188C46.8646 17.5833 47.2292 17.9948 47.5312 18.4531C47.8333 18.9115 48.0885 19.4167 48.2969 19.9688C48.6198 20.8438 48.7812 21.8594 48.7812 23.0156V32.9219H46.0781V23.125C46.0781 21.8125 45.8073 20.75 45.2656 19.9375C44.724 19.1146 43.8906 18.7031 42.7656 18.7031C41.6719 18.7031 40.849 19.1042 40.2969 19.9062C39.7448 20.7083 39.4688 21.7448 39.4688 23.0156V32.9219H36.7656V23.125C36.7656 21.8125 36.4948 20.75 35.9531 19.9375C35.4115 19.1146 34.5781 18.7031 33.4531 18.7031C32.349 18.7031 31.5208 19.1198 30.9688 19.9531C30.4271 20.776 30.1562 21.8333 30.1562 23.125V32.9219H27.4531V16.3906H30L30.1094 17.9531ZM65.7188 29.0156C65.1354 30.3698 64.2969 31.4375 63.2031 32.2188C62.1198 33 60.7708 33.3906 59.1562 33.3906C58.2604 33.3906 57.4375 33.2604 56.6875 33C55.9375 32.7396 55.2865 32.375 54.7344 31.9062C54.1927 31.4271 53.7292 30.8906 53.3438 30.2969C52.9583 29.6927 52.6458 29.026 52.4062 28.2969C52.0521 27.2344 51.875 26.0573 51.875 24.7656C51.875 22.7865 52.2396 21.0938 52.9688 19.6875C53.7083 18.2708 54.75 17.2448 56.0938 16.6094C56.9583 16.2031 57.9062 16 58.9375 16C59.8333 16 60.651 16.1406 61.3906 16.4219C62.1302 16.7031 62.7604 17.099 63.2812 17.6094C63.8021 18.1094 64.2396 18.6719 64.5938 19.2969C64.9583 19.9219 65.2604 20.6146 65.5 21.375C65.8438 22.5417 66.0156 23.8698 66.0156 25.3594H54.6562C54.6771 27.026 55.0625 28.3646 55.8125 29.375C56.5729 30.375 57.7031 30.875 59.2031 30.875C61.0469 30.875 62.3542 30 63.125 28.25L65.7188 29.0156ZM63.0156 22.9062C62.6719 20.7708 61.8021 19.4062 60.4062 18.8125C59.9583 18.625 59.4844 18.5312 58.9844 18.5312C58.1198 18.5312 57.3802 18.7708 56.7656 19.25C56.1615 19.7188 55.6875 20.3281 55.3438 21.0781C55.0833 21.6198 54.9115 22.2292 54.8281 22.9062H63.0156ZM74.7812 33.3125C73.7917 33.3125 72.9531 33.1354 72.2656 32.7812C71.5781 32.4271 71.0521 31.901 70.6875 31.2031C70.3333 30.4948 70.1562 29.6302 70.1562 28.6094V19.0156H68V16.5625H70.1562V12.0938H72.8594V16.5625H77.0781V19.0156H72.8594V28.6094C72.8594 29.3177 73.0833 29.849 73.5312 30.2031C73.9792 30.5573 74.5469 30.7344 75.2344 30.7344C75.4115 30.7344 75.5938 30.724 75.7812 30.7031C75.9792 30.6719 76.1719 30.6302 76.3594 30.5781C76.5573 30.526 76.75 30.4635 76.9375 30.3906L77.7188 32.8438C76.6771 33.1562 75.6979 33.3125 74.7812 33.3125ZM88.3125 19.6719C87.6979 19.1719 87.026 18.9219 86.2969 18.9219C85.1927 18.9219 84.3646 19.3385 83.8125 20.1719C83.2708 20.9948 83 22.0521 83 23.3438V32.9844H80.2969V16.4531H82.8438L82.9531 18.0156C83.2344 17.651 83.5573 17.3281 83.9219 17.0469C84.2969 16.7656 84.7292 16.5365 85.2188 16.3594C85.7188 16.1823 86.2344 16.0938 86.7656 16.0938C87.8281 16.0938 88.8385 16.4427 89.7969 17.1406L88.3125 19.6719ZM98.8281 18.4062C97.099 18.4062 96.0312 19.2812 95.625 21.0312L92.9219 20.2969C93.3698 18.974 94.1042 17.9219 95.125 17.1406C96.1458 16.3594 97.4427 15.9688 99.0156 15.9688C100.016 15.9688 100.917 16.1354 101.719 16.4688C102.531 16.7917 103.203 17.2344 103.734 17.7969C104.266 18.349 104.688 19.0104 105 19.7812C105.354 20.6354 105.531 21.6458 105.531 22.8125V33.0156H102.875L102.75 31.3438C101.51 32.6771 99.9479 33.3438 98.0625 33.3438C96.75 33.3438 95.6198 33.0729 94.6719 32.5312C93.7344 31.9792 93.0469 31.2292 92.6094 30.2812C92.3177 29.6354 92.1719 28.9219 92.1719 28.1406C92.1719 27.4219 92.2865 26.7656 92.5156 26.1719C92.7448 25.5677 93.0625 25.0521 93.4688 24.625C93.875 24.1875 94.3281 23.8229 94.8281 23.5312C95.3385 23.2292 95.8906 22.9896 96.4844 22.8125C97.3177 22.5625 98.1719 22.4375 99.0469 22.4375C100.38 22.4375 101.578 22.7083 102.641 23.25V22.7812C102.641 21.3854 102.328 20.3073 101.703 19.5469C101.078 18.7865 100.12 18.4062 98.8281 18.4062ZM99.125 24.875C97.9062 24.875 96.9271 25.1406 96.1875 25.6719C95.4583 26.1927 95.0938 26.9896 95.0938 28.0625C95.0938 29.9167 96.276 30.8438 98.6406 30.8438C99.5573 30.8438 100.333 30.6302 100.969 30.2031C101.615 29.7656 102.078 29.1875 102.359 28.4688C102.547 27.9792 102.641 27.4531 102.641 26.8906V25.7656C101.818 25.1719 100.646 24.875 99.125 24.875ZM115.781 30.9062C116.656 30.9062 117.411 30.6615 118.047 30.1719C118.693 29.6719 119.188 29.0312 119.531 28.25L122.125 29.0156C121.562 30.3281 120.755 31.3854 119.703 32.1875C118.661 32.9896 117.354 33.3906 115.781 33.3906C114.927 33.3906 114.141 33.2656 113.422 33.0156C112.703 32.7656 112.078 32.4167 111.547 31.9688C111.026 31.5104 110.578 31 110.203 30.4375C109.828 29.8646 109.521 29.2292 109.281 28.5312C108.906 27.4479 108.719 26.1927 108.719 24.7656C108.719 22.7552 109.094 21.0417 109.844 19.625C110.594 18.1979 111.661 17.1771 113.047 16.5625C113.901 16.1771 114.812 15.9844 115.781 15.9844C117.354 15.9844 118.661 16.3854 119.703 17.1875C120.755 17.9896 121.562 19.0521 122.125 20.375L119.531 21.125C119.188 20.3438 118.703 19.7083 118.078 19.2188C117.453 18.7188 116.688 18.4688 115.781 18.4688C115.344 18.4688 114.938 18.5365 114.562 18.6719C114.188 18.7969 113.859 18.9688 113.578 19.1875C113.297 19.4062 113.042 19.6719 112.812 19.9844C112.583 20.2969 112.391 20.6198 112.234 20.9531C112.089 21.276 111.958 21.6354 111.844 22.0312C111.615 22.8125 111.5 23.724 111.5 24.7656C111.5 26.1823 111.719 27.3906 112.156 28.3906C112.594 29.3906 113.25 30.1042 114.125 30.5312C114.646 30.7812 115.198 30.9062 115.781 30.9062ZM127.688 25.7656V33.0156H124.984V10.2344H127.688V22.5625L135.391 16.5H139.141L131.969 22.2969L139.547 33.0156H136.094L129.828 24.0312L127.688 25.7656ZM156.312 29.0156C155.729 30.3698 154.891 31.4375 153.797 32.2188C152.714 33 151.365 33.3906 149.75 33.3906C148.854 33.3906 148.031 33.2604 147.281 33C146.531 32.7396 145.88 32.375 145.328 31.9062C144.786 31.4271 144.323 30.8906 143.938 30.2969C143.552 29.6927 143.24 29.026 143 28.2969C142.646 27.2344 142.469 26.0573 142.469 24.7656C142.469 22.7865 142.833 21.0938 143.562 19.6875C144.302 18.2708 145.344 17.2448 146.688 16.6094C147.552 16.2031 148.5 16 149.531 16C150.427 16 151.245 16.1406 151.984 16.4219C152.724 16.7031 153.354 17.099 153.875 17.6094C154.396 18.1094 154.833 18.6719 155.188 19.2969C155.552 19.9219 155.854 20.6146 156.094 21.375C156.438 22.5417 156.609 23.8698 156.609 25.3594H145.25C145.271 27.026 145.656 28.3646 146.406 29.375C147.167 30.375 148.297 30.875 149.797 30.875C151.641 30.875 152.948 30 153.719 28.25L156.312 29.0156ZM153.609 22.9062C153.266 20.7708 152.396 19.4062 151 18.8125C150.552 18.625 150.078 18.5312 149.578 18.5312C148.714 18.5312 147.974 18.7708 147.359 19.25C146.755 19.7188 146.281 20.3281 145.938 21.0781C145.677 21.6198 145.505 22.2292 145.422 22.9062H153.609ZM167.656 19.6719C167.042 19.1719 166.37 18.9219 165.641 18.9219C164.536 18.9219 163.708 19.3385 163.156 20.1719C162.615 20.9948 162.344 22.0521 162.344 23.3438V32.9844H159.641V16.4531H162.188L162.297 18.0156C162.578 17.651 162.901 17.3281 163.266 17.0469C163.641 16.7656 164.073 16.5365 164.562 16.3594C165.062 16.1823 165.578 16.0938 166.109 16.0938C167.172 16.0938 168.182 16.4427 169.141 17.1406L167.656 19.6719Z" fill="white"/>
<defs>
<linearGradient id="paint0_linear_140_969" x1="170.667" y1="11.6667" x2="207.333" y2="38.3334" gradientUnits="userSpaceOnUse">
<stop stop-color="white"/>
<stop offset="0.348958" stop-color="white"/>
<stop offset="0.630208" stop-color="#FA00FF"/>
<stop offset="0.953125" stop-color="#FF5C00"/>
</linearGradient>
</defs>
</svg>
